<?xml version="1.0" encoding="utf-8"?><svg viewBox="0 0 115 40" xmlns="http://www.w3.org/2000/svg" xmlns:xlink="http://www.w3.org/1999/xlink"><style>:root>svg{display:none}:root>svg:target{display:block}</style><svg fill="none" viewBox="0 0 18 18" id="facebook-icon" xmlns="http://www.w3.org/2000/svg"><path d="M12.857 2h-2.143a3.571 3.571 0 00-3.571 3.571v2.143H5v2.857h2.143v5.715H10V10.57h2.143l.714-2.857H10V5.571a.715.715 0 01.714-.714h2.143V2z" fill="#29CDB5"/></svg><svg fill="none" viewBox="0 0 18 18" id="instagram-icon" xmlns="http://www.w3.org/2000/svg"><path d="M9 6.679a2.321 2.321 0 100 4.643 2.321 2.321 0 000-4.643z" fill="#29CDB5"/><path fill-rule="evenodd" clip-rule="evenodd" d="M5.264 2.63a33.908 33.908 0 017.472 0 2.957 2.957 0 012.609 2.58 32.632 32.632 0 010 7.58 2.957 2.957 0 01-2.609 2.58c-2.463.276-5.01.276-7.472 0a2.957 2.957 0 01-2.609-2.58 32.622 32.622 0 010-7.58 2.957 2.957 0 012.609-2.58zm7.308 2.084a.714.714 0 100 1.429.714.714 0 000-1.429zM5.607 9a3.393 3.393 0 116.786 0 3.393 3.393 0 01-6.786 0z" fill="#29CDB5"/></svg><svg fill="none" viewBox="0 0 115 40" id="logo-icon" xmlns="http://www.w3.org/2000/svg"><path d="M67.368 11.32V28h-2.736V16.576L59.544 28h-1.896l-5.112-11.424V28H49.8V11.32h2.952l5.856 13.08 5.832-13.08h2.928zm16.072 3.456V28h-2.736v-1.56c-.432.544-1 .976-1.704 1.296a5.402 5.402 0 01-2.208.456c-1.04 0-1.976-.216-2.808-.648-.816-.432-1.464-1.072-1.944-1.92-.464-.848-.696-1.872-.696-3.072v-7.776h2.712v7.368c0 1.184.296 2.096.888 2.736.592.624 1.4.936 2.424.936s1.832-.312 2.424-.936c.608-.64.912-1.552.912-2.736v-7.368h2.736zm6.846-4.536V28H87.55V10.24h2.736zm5.484 2.784c-.496 0-.912-.168-1.248-.504a1.695 1.695 0 01-.504-1.248c0-.496.168-.912.504-1.248a1.695 1.695 0 011.248-.504c.48 0 .888.168 1.224.504.336.336.504.752.504 1.248s-.168.912-.504 1.248a1.666 1.666 0 01-1.224.504zm1.344 1.752V28h-2.736V14.776h2.736zm10.932-.216c1.008 0 1.904.216 2.688.648.8.432 1.424 1.072 1.872 1.92.464.848.696 1.872.696 3.072V28h-2.712v-7.392c0-1.184-.296-2.088-.888-2.712-.592-.64-1.4-.96-2.424-.96s-1.84.32-2.448.96c-.592.624-.888 1.528-.888 2.712V28h-2.736V10.24h2.736v6.072a4.606 4.606 0 011.752-1.296 5.985 5.985 0 012.352-.456z" fill="#4BA586"/><circle cx="20" cy="20" r="20" fill="#4BA586"/><path d="M30.096 11.08V28h-4.704v-9.336L22.2 28h-3.936l-3.216-9.408V28h-4.704V11.08h5.688l4.248 10.992 4.152-10.992h5.664z" fill="#FEFEFF"/></svg><svg fill="none" viewBox="0 0 16 12" id="youtube-icon" xmlns="http://www.w3.org/2000/svg"><path fill-rule="evenodd" clip-rule="evenodd" d="M4.42.922a45.891 45.891 0 017.16 0l1.6.125c.891.07 1.62.738 1.768 1.62.369 2.207.369 4.46 0 6.666a1.947 1.947 0 01-1.768 1.62l-1.6.125a45.892 45.892 0 01-7.16 0l-1.6-.125a1.947 1.947 0 01-1.768-1.62 20.225 20.225 0 010-6.666 1.947 1.947 0 011.768-1.62l1.6-.125zm2.151 6.843v-3.53c0-.166.182-.269.325-.183l2.94 1.764a.214.214 0 010 .368l-2.94 1.764a.214.214 0 01-.325-.183z" fill="#29CDB5"/></svg></svg>