<?xml version="1.0" encoding="utf-8"?><svg viewBox="0 0 115 104" xmlns="http://www.w3.org/2000/svg" xmlns:xlink="http://www.w3.org/1999/xlink"><style>:root>svg{display:none}:root>svg:target{display:block}</style><svg fill="none" viewBox="0 0 24 24" id="arrow-icon" xmlns="http://www.w3.org/2000/svg"><path fill-rule="evenodd" clip-rule="evenodd" d="M22 12c0 5.52-4.49 10-10 10l-.28-.004C6.33 21.848 2 17.426 2 12 2 6.49 6.48 2 12 2c5.51 0 10 4.49 10 10zM10.02 8c-.29.3-.29.77.01 1.06L12.98 12l-2.95 2.94c-.3.29-.3.77-.01 1.06.3.3.77.3 1.06 0l3.49-3.47a.75.75 0 000-1.06L11.08 8a.704.704 0 00-.52-.22c-.2 0-.39.07-.54.22z" fill="#69B99D"/></svg><svg fill="none" viewBox="0 0 24 24" id="chevron-icon" xmlns="http://www.w3.org/2000/svg"><path d="M4.47 7.97a.75.75 0 01.976-.073l.084.073L12 14.439l6.47-6.47a.75.75 0 01.976-.072l.084.073a.75.75 0 01.073.976l-.073.084-7 7a.75.75 0 01-.976.073l-.084-.073-7-7a.75.75 0 010-1.06z" fill="#1F2744"/></svg><svg fill="none" viewBox="0 0 18 18" id="facebook-icon" xmlns="http://www.w3.org/2000/svg"><path d="M12.857 2h-2.143a3.571 3.571 0 00-3.571 3.571v2.143H5v2.857h2.143v5.715H10V10.57h2.143l.714-2.857H10V5.571a.715.715 0 01.714-.714h2.143V2z" fill="#29CDB5"/></svg><svg fill="none" viewBox="0 0 54 54" id="graph-icon" xmlns="http://www.w3.org/2000/svg"><path fill-rule="evenodd" clip-rule="evenodd" d="M27.734 4.972c.36-.323.835-.492 1.321-.47 10.285.308 18.88 7.774 20.438 17.752.01.06.01.12 0 .18.033.472-.127.938-.444 1.294a1.826 1.826 0 01-1.248.605l-17.279 1.14a2.063 2.063 0 01-1.56-.518 1.982 1.982 0 01-.66-1.482L27.14 6.501v-.28c.021-.477.235-.927.594-1.25zM26.55 29.91l14.977-.96.101.04c.644.01 1.256.271 1.703.725.447.454.692 1.063.681 1.694-.59 8.6-6.895 15.785-15.475 17.636-8.58 1.851-17.376-2.076-21.588-9.64a18.483 18.483 0 01-2.303-7.056 13.4 13.4 0 01-.143-2.22c.029-9.144 6.54-17.037 15.65-18.971a2.478 2.478 0 012.689 1.34c.12.18.215.375.285.58.17 2.635.348 5.246.524 7.846.14 2.054.279 4.1.413 6.147-.007.482.07.962.225 1.42a2.305 2.305 0 002.261 1.419z" fill="#69B99D"/></svg><svg fill="none" viewBox="0 0 54 54" id="heart-icon" xmlns="http://www.w3.org/2000/svg"><path fill-rule="evenodd" clip-rule="evenodd" d="M35.662 5.627c1.42 0 2.837.2 4.185.652 8.305 2.7 11.297 11.813 8.797 19.778a28.638 28.638 0 01-6.77 10.82 86.52 86.52 0 01-14.245 11.16l-.562.34-.585-.363a85.706 85.706 0 01-14.33-11.16 29.098 29.098 0 01-6.775-10.797c-2.542-7.965.45-17.078 8.845-19.825a10.168 10.168 0 012-.47h.27c.632-.093 1.26-.135 1.89-.135h.247c1.418.042 2.79.29 4.12.742h.133c.09.043.157.09.202.133.498.16.968.34 1.418.587l.855.383c.207.11.439.278.639.424.127.092.241.175.329.228l.111.065c.193.113.394.23.564.36 2.5-1.91 5.535-2.945 8.662-2.922zm5.985 16.2a1.85 1.85 0 001.778-1.713v-.267c.067-3.153-1.843-6.008-4.748-7.11-.922-.318-1.935.18-2.272 1.125a1.84 1.84 0 001.125 2.315c1.442.54 2.407 1.96 2.407 3.532v.07a1.934 1.934 0 00.428 1.395c.315.383.787.605 1.282.653z" fill="#69B99D"/></svg><svg fill="none" viewBox="0 0 18 18" id="instagram-icon" xmlns="http://www.w3.org/2000/svg"><path d="M9 6.679a2.321 2.321 0 100 4.643 2.321 2.321 0 000-4.643z" fill="#29CDB5"/><path fill-rule="evenodd" clip-rule="evenodd" d="M5.264 2.63a33.908 33.908 0 017.472 0 2.957 2.957 0 012.609 2.58 32.632 32.632 0 010 7.58 2.957 2.957 0 01-2.609 2.58c-2.463.276-5.01.276-7.472 0a2.957 2.957 0 01-2.609-2.58 32.622 32.622 0 010-7.58 2.957 2.957 0 012.609-2.58zm7.308 2.084a.714.714 0 100 1.429.714.714 0 000-1.429zM5.607 9a3.393 3.393 0 116.786 0 3.393 3.393 0 01-6.786 0z" fill="#29CDB5"/></svg><svg fill="none" viewBox="0 0 54 54" id="location-icon" xmlns="http://www.w3.org/2000/svg"><path fill-rule="evenodd" clip-rule="evenodd" d="M7.875 23.215c0-10.35 8.649-18.715 19.11-18.715 10.491 0 19.14 8.365 19.14 18.715 0 5.215-1.897 10.057-5.019 14.161A49.647 49.647 0 0128.64 48.943c-1.093.715-2.08.77-3.28 0a48.693 48.693 0 01-12.465-11.567c-3.125-4.104-5.019-8.946-5.019-14.161zm12.812.583c0 3.467 2.83 6.194 6.298 6.194 3.471 0 6.328-2.727 6.328-6.194 0-3.44-2.857-6.3-6.328-6.3-3.469 0-6.298 2.86-6.298 6.3z" fill="#69B99D"/></svg><svg fill="none" viewBox="0 0 115 40" id="logo-icon" xmlns="http://www.w3.org/2000/svg"><path d="M67.368 11.32V28h-2.736V16.576L59.544 28h-1.896l-5.112-11.424V28H49.8V11.32h2.952l5.856 13.08 5.832-13.08h2.928zm16.072 3.456V28h-2.736v-1.56c-.432.544-1 .976-1.704 1.296a5.402 5.402 0 01-2.208.456c-1.04 0-1.976-.216-2.808-.648-.816-.432-1.464-1.072-1.944-1.92-.464-.848-.696-1.872-.696-3.072v-7.776h2.712v7.368c0 1.184.296 2.096.888 2.736.592.624 1.4.936 2.424.936s1.832-.312 2.424-.936c.608-.64.912-1.552.912-2.736v-7.368h2.736zm6.846-4.536V28H87.55V10.24h2.736zm5.484 2.784c-.496 0-.912-.168-1.248-.504a1.695 1.695 0 01-.504-1.248c0-.496.168-.912.504-1.248a1.695 1.695 0 011.248-.504c.48 0 .888.168 1.224.504.336.336.504.752.504 1.248s-.168.912-.504 1.248a1.666 1.666 0 01-1.224.504zm1.344 1.752V28h-2.736V14.776h2.736zm10.932-.216c1.008 0 1.904.216 2.688.648.8.432 1.424 1.072 1.872 1.92.464.848.696 1.872.696 3.072V28h-2.712v-7.392c0-1.184-.296-2.088-.888-2.712-.592-.64-1.4-.96-2.424-.96s-1.84.32-2.448.96c-.592.624-.888 1.528-.888 2.712V28h-2.736V10.24h2.736v6.072a4.606 4.606 0 011.752-1.296 5.985 5.985 0 012.352-.456z" fill="#4BA586"/><circle cx="20" cy="20" r="20" fill="#4BA586"/><path d="M30.096 11.08V28h-4.704v-9.336L22.2 28h-3.936l-3.216-9.408V28h-4.704V11.08h5.688l4.248 10.992 4.152-10.992h5.664z" fill="#FEFEFF"/></svg><svg fill="none" viewBox="0 0 42 34" id="quote-icon" xmlns="http://www.w3.org/2000/svg"><path d="M0 34V22.625c0-4.25.752-8.167 2.257-11.75C3.76 7.292 6.31 3.667 9.904 0l6.52 5.125C14.334 7.208 12.746 9.167 11.66 11c-1.087 1.833-1.797 3.708-2.132 5.625h8.024V34H0zm24.448 0V22.625c0-4.25.752-8.167 2.256-11.75C28.21 7.292 30.758 3.667 34.352 0l6.52 5.125c-2.09 2.083-3.678 4.042-4.764 5.875-1.087 1.833-1.798 3.708-2.132 5.625H42V34H24.448z" fill="#F5F5F5"/></svg><svg fill="none" viewBox="0 0 54 54" id="shield-icon" xmlns="http://www.w3.org/2000/svg"><path fill-rule="evenodd" clip-rule="evenodd" d="M26.388 49.306c.25.13.528.196.807.194a1.76 1.76 0 00.806-.203l8.028-4.291c2.276-1.214 4.059-2.57 5.45-4.15 3.024-3.443 4.675-7.835 4.646-12.365l-.096-14.941c-.009-1.722-1.139-3.257-2.81-3.815L28.283 4.724a4.25 4.25 0 00-2.768.015L10.64 9.93c-1.663.58-2.773 2.127-2.764 3.85l.095 14.93c.03 4.537 1.738 8.91 4.811 12.316 1.405 1.558 3.203 2.895 5.505 4.089l8.102 4.192zm-2.125-17.56c.335.321.77.48 1.205.476a1.71 1.71 0 001.198-.492l8.773-8.65c.66-.65.653-1.696-.013-2.338a1.731 1.731 0 00-2.404.013l-7.579 7.471-3.103-2.983a1.732 1.732 0 00-2.404.015c-.659.651-.652 1.697.016 2.34l4.311 4.147z" fill="#69B99D"/></svg><svg fill="none" viewBox="0 0 54 54" id="star-icon" xmlns="http://www.w3.org/2000/svg"><path d="M40.317 32.22a2.476 2.476 0 00-.718 2.183l2 11.07a2.43 2.43 0 01-1.012 2.43c-.77.562-1.794.63-2.633.18l-9.965-5.198a2.544 2.544 0 00-1.125-.294h-.61a1.826 1.826 0 00-.607.202l-9.968 5.222a2.628 2.628 0 01-1.597.248 2.5 2.5 0 01-2.003-2.86l2.003-11.07a2.518 2.518 0 00-.718-2.203l-8.125-7.875a2.429 2.429 0 01-.605-2.542 2.526 2.526 0 012-1.688l11.183-1.622a2.502 2.502 0 001.98-1.37L24.724 6.93c.117-.225.268-.432.45-.607l.203-.158c.105-.117.227-.214.362-.292l.245-.09.383-.158h.947c.846.088 1.59.594 1.98 1.35l4.993 10.058a2.5 2.5 0 001.867 1.37l11.183 1.622a2.55 2.55 0 012.047 1.688c.295.902.04 1.892-.652 2.542l-8.415 7.965z" fill="#69B99D"/></svg><svg fill="none" viewBox="0 0 104 104" id="tickSquare-icon" xmlns="http://www.w3.org/2000/svg"><g filter="url(#lfilter0_d_40_554)"><path fill-rule="evenodd" clip-rule="evenodd" d="M46.227 38.666h11.56c4.52 0 7.546 3.174 7.546 7.894v10.895c0 4.705-3.026 7.878-7.546 7.878h-11.56c-4.52 0-7.56-3.173-7.56-7.878V46.56c0-4.72 3.04-7.894 7.56-7.894zm5.013 17.32l6.333-6.333a1.175 1.175 0 000-1.653 1.175 1.175 0 00-1.653 0l-5.507 5.507-2.333-2.334a1.175 1.175 0 00-1.653 0 1.175 1.175 0 000 1.654l3.173 3.16c.227.226.52.333.813.333.307 0 .6-.107.827-.334z" fill="#69B99D"/></g><defs><filter id="lfilter0_d_40_554" x="-2" y="-2" width="108" height="108" filterUnits="userSpaceOnUse" color-interpolation-filters="sRGB"><feFlood flood-opacity="0" result="BackgroundImageFix"/><feColorMatrix in="SourceAlpha" values="0 0 0 0 0 0 0 0 0 0 0 0 0 0 0 0 0 0 127 0" result="hardAlpha"/><feOffset/><feGaussianBlur stdDeviation="19"/><feColorMatrix values="0 0 0 0 0.411765 0 0 0 0 0.72549 0 0 0 0 0.615686 0 0 0 0.32 0"/><feBlend in2="BackgroundImageFix" result="effect1_dropShadow_40_554"/><feBlend in="SourceGraphic" in2="effect1_dropShadow_40_554" result="shape"/></filter></defs></svg><svg fill="none" viewBox="0 0 54 54" id="ticket-icon" xmlns="http://www.w3.org/2000/svg"><path fill-rule="evenodd" clip-rule="evenodd" d="M44.462 27.002c0 1.83 1.503 3.32 3.35 3.32.932 0 1.688.749 1.688 1.672v6.022c0 5.092-4.18 9.234-9.32 9.234H13.823c-5.14 0-9.322-4.142-9.322-9.234v-6.022a1.68 1.68 0 011.688-1.672c1.849 0 3.352-1.49 3.352-3.32 0-1.783-1.442-3.125-3.352-3.125-.448 0-.876-.177-1.193-.49a1.665 1.665 0 01-.495-1.183l.005-6.217c0-5.092 4.18-9.237 9.319-9.237h26.352c5.139 0 9.322 4.145 9.322 9.237l.002 6.024c0 .44-.178.869-.493 1.181-.317.314-.744.49-1.194.49-1.848 0-3.35 1.49-3.35 3.32zm-12.395 1.456l2.653-2.56a1.62 1.62 0 00.42-1.694 1.642 1.642 0 00-1.34-1.117l-3.666-.53-1.64-3.29a1.658 1.658 0 00-1.49-.922H27c-.635 0-1.206.353-1.492.919l-1.64 3.293-3.659.528c-.632.09-1.15.517-1.35 1.12a1.63 1.63 0 00.421 1.694l2.653 2.56-.626 3.618a1.636 1.636 0 00.664 1.616 1.668 1.668 0 001.748.123L27 32.108l3.275 1.703a1.65 1.65 0 001.755-.12c.52-.37.774-.99.666-1.614l-.628-3.619z" fill="#69B99D"/></svg><svg fill="none" viewBox="0 0 16 12" id="youtube-icon" xmlns="http://www.w3.org/2000/svg"><path fill-rule="evenodd" clip-rule="evenodd" d="M4.42.922a45.891 45.891 0 017.16 0l1.6.125c.891.07 1.62.738 1.768 1.62.369 2.207.369 4.46 0 6.666a1.947 1.947 0 01-1.768 1.62l-1.6.125a45.892 45.892 0 01-7.16 0l-1.6-.125a1.947 1.947 0 01-1.768-1.62 20.225 20.225 0 010-6.666 1.947 1.947 0 011.768-1.62l1.6-.125zm2.151 6.843v-3.53c0-.166.182-.269.325-.183l2.94 1.764a.214.214 0 010 .368l-2.94 1.764a.214.214 0 01-.325-.183z" fill="#29CDB5"/></svg></svg>