<?xml version="1.0" encoding="utf-8"?><svg viewBox="0 0 104 87" xmlns="http://www.w3.org/2000/svg" xmlns:xlink="http://www.w3.org/1999/xlink"><style>:root>svg{display:none}:root>svg:target{display:block}</style><svg fill="none" viewBox="0 0 87 87" id="bulb" xmlns="http://www.w3.org/2000/svg"><g clip-path="url(#aclip0_580_309)" fill="#000"><path d="M61.352 49.3A21.678 21.678 0 0065.7 36.067c-.039-5.9-2.389-11.418-6.618-15.534a21.721 21.721 0 00-15.714-6.194c-5.719.118-11.092 2.448-15.13 6.56-4.04 4.113-6.271 9.528-6.286 15.249-.013 4.904 1.56 9.542 4.547 13.412 4.85 6.284 7.548 14.002 7.598 21.733l.054 8.46a6.813 6.813 0 006.85 6.76l6.329-.041a6.813 6.813 0 006.76-6.849l-.054-8.458c-.05-7.816 2.46-15.377 7.315-21.865zM28.72 47.847a18.886 18.886 0 01-3.963-11.692c.027-10.271 8.402-18.8 18.67-19.012 5.151-.102 10.014 1.812 13.7 5.4a18.933 18.933 0 015.77 13.543 18.896 18.896 0 01-3.79 11.534c-5.116 6.836-7.842 14.79-7.903 23.036l-14.31.092c-.17-8.164-3.062-16.277-8.174-22.901zm8.23 30.937l-.007-1.136 14.341 1.55.003.443c.002.234-.021.462-.058.685L36.95 78.784zm-.025-3.958l-.008-1.273 14.33-.093.019 2.915-14.34-1.55zm4.058 8.883a4.003 4.003 0 01-3.515-2.049l12.08 1.305a3.976 3.976 0 01-2.235.703l-6.33.04z"/><path d="M29.974 38.407a14.35 14.35 0 01-.169-2.239 1.402 1.402 0 10-2.804-.007c-.003.899.066 1.8.202 2.678a1.402 1.402 0 102.771-.431zM38.364 59.653a1.405 1.405 0 001.32-1.849 44.49 44.49 0 00-6.968-13.041 14.171 14.171 0 01-1.325-2.063 1.402 1.402 0 10-2.483 1.304c.452.86.986 1.693 1.588 2.472a41.69 41.69 0 016.53 12.221c.198.59.749.96 1.338.956zM58.592 40.915a1.402 1.402 0 00-1.838.745 14.027 14.027 0 01-1.69 2.936 1.402 1.402 0 102.246 1.68 16.848 16.848 0 002.027-3.523 1.402 1.402 0 00-.745-1.838zM43.736 22.188c7.732-.05 14.062 6.199 14.112 13.93.003.44-.014.883-.051 1.317a1.402 1.402 0 002.794.238c.044-.519.065-1.048.062-1.573-.06-9.277-7.657-16.777-16.935-16.717a1.402 1.402 0 10.018 2.805zM43.67 11.916a1.402 1.402 0 001.393-1.411l-.05-7.853a1.402 1.402 0 00-2.805.019l.05 7.852a1.402 1.402 0 001.412 1.393zM73.896 51.941l-6.823-3.88a1.402 1.402 0 10-1.386 2.438l6.823 3.88a1.402 1.402 0 101.386-2.438zM13.76 20.966l6.824 3.88a1.402 1.402 0 001.386-2.438l-6.823-3.88a1.402 1.402 0 10-1.387 2.438zM77.611 34.833l-7.852.05a1.402 1.402 0 00.018 2.805l7.852-.051a1.402 1.402 0 00-.018-2.804zM19.291 36.612a1.402 1.402 0 00-1.411-1.393l-7.853.05a1.402 1.402 0 00.018 2.805l7.853-.05a1.402 1.402 0 001.393-1.412zM66.223 24.74c.237-.002.478-.065.698-.193l6.773-3.969a1.402 1.402 0 10-1.418-2.42l-6.773 3.969a1.402 1.402 0 00.72 2.612zM20.736 48.36l-6.773 3.969a1.402 1.402 0 101.418 2.42l6.773-3.969a1.402 1.402 0 00-1.418-2.42zM55.962 15.12a1.402 1.402 0 001.912-.526l3.88-6.822a1.402 1.402 0 10-2.438-1.387l-3.88 6.824a1.402 1.402 0 00.526 1.912z"/></g><defs><clipPath id="aclip0_580_309"><path fill="#fff" transform="rotate(-.37 237.906 -151.428)" d="M0 0h85.235v85.235H0z"/></clipPath></defs></svg><svg fill="none" viewBox="0 0 104 29" id="logo" xmlns="http://www.w3.org/2000/svg"><path d="M13.336 15.076a5.19 5.19 0 012.484 1.116 6.279 6.279 0 011.8 2.232c.456.888.684 1.836.684 2.844 0 1.272-.324 2.424-.972 3.456-.648 1.008-1.596 1.812-2.844 2.412-1.224.576-2.676.864-4.356.864H.772V2.908h9c1.704 0 3.156.288 4.356.864 1.2.552 2.1 1.308 2.7 2.268.6.96.9 2.04.9 3.24 0 1.488-.408 2.724-1.224 3.708-.792.96-1.848 1.656-3.168 2.088zm-9.288-1.332h5.508c1.536 0 2.724-.36 3.564-1.08.84-.72 1.26-1.716 1.26-2.988s-.42-2.268-1.26-2.988c-.84-.72-2.052-1.08-3.636-1.08H4.048v8.136zM9.844 25.3c1.632 0 2.904-.384 3.816-1.152.912-.768 1.368-1.836 1.368-3.204 0-1.392-.48-2.484-1.44-3.276-.96-.816-2.244-1.224-3.852-1.224H4.048V25.3h5.796zm16.282-13.824c.576-1.128 1.392-2.004 2.448-2.628 1.08-.624 2.388-.936 3.924-.936v3.384h-.864c-3.672 0-5.508 1.992-5.508 5.976V28H22.85V8.272h3.276v3.204zm11.846-6.408a2.155 2.155 0 01-1.584-.648 2.155 2.155 0 01-.648-1.584c0-.624.216-1.152.648-1.584.432-.432.96-.648 1.584-.648.6 0 1.104.216 1.512.648.432.432.648.96.648 1.584 0 .624-.216 1.152-.648 1.584a1.997 1.997 0 01-1.512.648zm1.584 3.204V28H36.28V8.272h3.276zm9.58 2.7V22.6c0 .96.203 1.644.611 2.052.408.384 1.116.576 2.124.576h2.412V28h-2.952c-1.824 0-3.192-.42-4.104-1.26-.912-.84-1.368-2.22-1.368-4.14V10.972h-2.556v-2.7h2.556V3.304h3.276v4.968h5.148v2.7h-5.148z" fill="#000"/><path d="M61.529 1.36V28h-3.277V1.36h3.276zm23.583 16.02c0 .624-.036 1.284-.108 1.98H69.236c.12 1.944.78 3.468 1.98 4.572 1.224 1.08 2.7 1.62 4.428 1.62 1.416 0 2.592-.324 3.528-.972a5.302 5.302 0 002.016-2.664h3.528c-.528 1.896-1.584 3.444-3.168 4.644-1.584 1.176-3.552 1.764-5.904 1.764-1.872 0-3.552-.42-5.04-1.26-1.464-.84-2.616-2.028-3.456-3.564-.84-1.56-1.26-3.36-1.26-5.4 0-2.04.408-3.828 1.224-5.364.816-1.536 1.956-2.712 3.42-3.528 1.488-.84 3.192-1.26 5.112-1.26 1.872 0 3.528.408 4.968 1.224a8.324 8.324 0 013.312 3.384c.792 1.416 1.188 3.024 1.188 4.824zm-3.384-.684c0-1.248-.276-2.316-.828-3.204a5.21 5.21 0 00-2.268-2.052c-.936-.48-1.98-.72-3.132-.72-1.656 0-3.072.528-4.248 1.584-1.152 1.056-1.812 2.52-1.98 4.392h12.456zM99.732 28l-4.68-7.344-4.5 7.344h-3.42l6.372-9.792-6.372-9.936h3.708l4.68 7.308 4.464-7.308h3.42l-6.336 9.756L103.44 28h-3.708z" fill="#939393"/></svg></svg>